Repo.Men.UNRATED.1080p.BluRay.x264-LTT.mkv
******************************************

TiTLE......  Repo Men
YEAR.......  2010
GENRE......  Action | Sci-Fi | Thriller
iMDB URL...  http://www.imdb.com/title/tt1053424/
*************************************************

Video
Duration                         : 1h 59mn
Overall bit rate                 : 8 628 Kbps
Width                            : 1 920 pixels
Height                           : 816 pixels
Display aspect ratio             : 2.35:1
Frame rate                       : 23.976 fps
Stream size                      : 5.80 GiB (80%)

Audio
Format                           : DTS
Format/Info                      : Digital Theater Systems
Bit rate                         : 1 510 Kbps
Channel(s)                       : 6 channels
Channel positions                : Front: L C R, Surround: L R, LFE
Sampling rate                    : 48.0 KHz
Resolution                       : 24 bits
Stream size                      : 1.26 GiB (17%)
Language                         : English

Subtitles: English, Dutch, French
*********************************


